<svg width="80" height="95" viewBox="0 0 80 95" fill="none" xmlns="http://www.w3.org/2000/svg">
<path d="M5.96 86.7914C5.04 86.7914 4.21333 86.6314 3.48 86.3114C2.76 85.978 2.19333 85.5247 1.78 84.9514C1.36667 84.3647 1.15333 83.6914 1.14 82.9314H3.08C3.14667 83.5847 3.41333 84.138 3.88 84.5914C4.36 85.0314 5.05333 85.2514 5.96 85.2514C6.82667 85.2514 7.50667 85.038 8 84.6114C8.50667 84.1714 8.76 83.6114 8.76 82.9314C8.76 82.398 8.61333 81.9647 8.32 81.6314C8.02667 81.298 7.66 81.0447 7.22 80.8714C6.78 80.698 6.18667 80.5114 5.44 80.3114C4.52 80.0714 3.78 79.8314 3.22 79.5914C2.67333 79.3514 2.2 78.978 1.8 78.4714C1.41333 77.9514 1.22 77.258 1.22 76.3914C1.22 75.6314 1.41333 74.958 1.8 74.3714C2.18667 73.7847 2.72667 73.3314 3.42 73.0114C4.12667 72.6914 4.93333 72.5314 5.84 72.5314C7.14667 72.5314 8.21333 72.858 9.04 73.5114C9.88 74.1647 10.3533 75.0314 10.46 76.1114H8.46C8.39333 75.578 8.11333 75.1114 7.62 74.7114C7.12667 74.298 6.47333 74.0914 5.66 74.0914C4.9 74.0914 4.28 74.2914 3.8 74.6914C3.32 75.078 3.08 75.6247 3.08 76.3314C3.08 76.838 3.22 77.2514 3.5 77.5714C3.79333 77.8914 4.14667 78.138 4.56 78.3114C4.98667 78.4714 5.58 78.658 6.34 78.8714C7.26 79.1247 8 79.378 8.56 79.6314C9.12 79.8714 9.6 80.2514 10 80.7714C10.4 81.278 10.6 81.9714 10.6 82.8514C10.6 83.5314 10.42 84.1714 10.06 84.7714C9.7 85.3714 9.16667 85.858 8.46 86.2314C7.75333 86.6047 6.92 86.7914 5.96 86.7914ZM12.5983 81.1514C12.5983 80.018 12.8249 79.0314 13.2783 78.1914C13.7316 77.338 14.3583 76.678 15.1583 76.2114C15.9716 75.7447 16.8983 75.5114 17.9383 75.5114C19.2849 75.5114 20.3916 75.838 21.2583 76.4914C22.1383 77.1447 22.7183 78.0514 22.9983 79.2114H21.0383C20.8516 78.5447 20.4849 78.018 19.9383 77.6314C19.4049 77.2447 18.7383 77.0514 17.9383 77.0514C16.8983 77.0514 16.0583 77.4114 15.4183 78.1314C14.7783 78.838 14.4583 79.8447 14.4583 81.1514C14.4583 82.4714 14.7783 83.4914 15.4183 84.2114C16.0583 84.9314 16.8983 85.2914 17.9383 85.2914C18.7383 85.2914 19.4049 85.1047 19.9383 84.7314C20.4716 84.358 20.8383 83.8247 21.0383 83.1314H22.9983C22.7049 84.2514 22.1183 85.1514 21.2383 85.8314C20.3583 86.498 19.2583 86.8314 17.9383 86.8314C16.8983 86.8314 15.9716 86.598 15.1583 86.1314C14.3583 85.6647 13.7316 85.0047 13.2783 84.1514C12.8249 83.298 12.5983 82.298 12.5983 81.1514ZM27.2467 77.4714C27.5667 76.8447 28.0201 76.358 28.6067 76.0114C29.2067 75.6647 29.9334 75.4914 30.7867 75.4914V77.3714H30.3067C28.2667 77.3714 27.2467 78.478 27.2467 80.6914V86.6514H25.4267V75.6914H27.2467V77.4714ZM42.8877 80.7514C42.8877 81.098 42.8677 81.4647 42.8277 81.8514H34.0677C34.1343 82.9314 34.501 83.778 35.1677 84.3914C35.8477 84.9914 36.6677 85.2914 37.6277 85.2914C38.4143 85.2914 39.0677 85.1114 39.5877 84.7514C40.121 84.378 40.4943 83.8847 40.7077 83.2714H42.6677C42.3743 84.3247 41.7877 85.1847 40.9077 85.8514C40.0277 86.5047 38.9343 86.8314 37.6277 86.8314C36.5877 86.8314 35.6543 86.598 34.8277 86.1314C34.0143 85.6647 33.3743 85.0047 32.9077 84.1514C32.441 83.2847 32.2077 82.2847 32.2077 81.1514C32.2077 80.018 32.4343 79.0247 32.8877 78.1714C33.341 77.318 33.9743 76.6647 34.7877 76.2114C35.6143 75.7447 36.561 75.5114 37.6277 75.5114C38.6677 75.5114 39.5877 75.738 40.3877 76.1914C41.1877 76.6447 41.801 77.2714 42.2277 78.0714C42.6677 78.858 42.8877 79.7514 42.8877 80.7514ZM41.0077 80.3714C41.0077 79.678 40.8543 79.0847 40.5477 78.5914C40.241 78.0847 39.821 77.7047 39.2877 77.4514C38.7677 77.1847 38.1877 77.0514 37.5477 77.0514C36.6277 77.0514 35.841 77.3447 35.1877 77.9314C34.5477 78.518 34.181 79.3314 34.0877 80.3714H41.0077ZM55.29 80.7514C55.29 81.098 55.27 81.4647 55.23 81.8514H46.47C46.5367 82.9314 46.9033 83.778 47.57 84.3914C48.25 84.9914 49.07 85.2914 50.03 85.2914C50.8167 85.2914 51.47 85.1114 51.99 84.7514C52.5233 84.378 52.8967 83.8847 53.11 83.2714H55.07C54.7767 84.3247 54.19 85.1847 53.31 85.8514C52.43 86.5047 51.3367 86.8314 50.03 86.8314C48.99 86.8314 48.0567 86.598 47.23 86.1314C46.4167 85.6647 45.7767 85.0047 45.31 84.1514C44.8433 83.2847 44.61 82.2847 44.61 81.1514C44.61 80.018 44.8367 79.0247 45.29 78.1714C45.7433 77.318 46.3767 76.6647 47.19 76.2114C48.0167 75.7447 48.9633 75.5114 50.03 75.5114C51.07 75.5114 51.99 75.738 52.79 76.1914C53.59 76.6447 54.2033 77.2714 54.63 78.0714C55.07 78.858 55.29 79.7514 55.29 80.7514ZM53.41 80.3714C53.41 79.678 53.2567 79.0847 52.95 78.5914C52.6433 78.0847 52.2233 77.7047 51.69 77.4514C51.17 77.1847 50.59 77.0514 49.95 77.0514C49.03 77.0514 48.2433 77.3447 47.59 77.9314C46.95 78.518 46.5833 79.3314 46.49 80.3714H53.41ZM63.0323 75.4914C64.3657 75.4914 65.4457 75.898 66.2723 76.7114C67.099 77.5114 67.5123 78.6714 67.5123 80.1914V86.6514H65.7123V80.4514C65.7123 79.358 65.439 78.5247 64.8923 77.9514C64.3457 77.3647 63.599 77.0714 62.6523 77.0714C61.6923 77.0714 60.9257 77.3714 60.3523 77.9714C59.7923 78.5714 59.5123 79.4447 59.5123 80.5914V86.6514H57.6923V75.6914H59.5123V77.2514C59.8723 76.6914 60.359 76.258 60.9723 75.9514C61.599 75.6447 62.2857 75.4914 63.0323 75.4914ZM74.3653 86.8314C73.5253 86.8314 72.772 86.6914 72.1053 86.4114C71.4386 86.118 70.912 85.718 70.5253 85.2114C70.1386 84.6914 69.9253 84.098 69.8853 83.4314H71.7653C71.8186 83.978 72.072 84.4247 72.5253 84.7714C72.992 85.118 73.5986 85.2914 74.3453 85.2914C75.0386 85.2914 75.5853 85.138 75.9853 84.8314C76.3853 84.5247 76.5853 84.138 76.5853 83.6714C76.5853 83.1914 76.372 82.838 75.9453 82.6114C75.5186 82.3714 74.8586 82.138 73.9653 81.9114C73.152 81.698 72.4853 81.4847 71.9653 81.2714C71.4586 81.0447 71.0186 80.718 70.6453 80.2914C70.2853 79.8514 70.1053 79.278 70.1053 78.5714C70.1053 78.0114 70.272 77.498 70.6053 77.0314C70.9386 76.5647 71.412 76.198 72.0253 75.9314C72.6386 75.6514 73.3386 75.5114 74.1253 75.5114C75.3386 75.5114 76.3186 75.818 77.0653 76.4314C77.812 77.0447 78.212 77.8847 78.2653 78.9514H76.4453C76.4053 78.378 76.172 77.918 75.7453 77.5714C75.332 77.2247 74.772 77.0514 74.0653 77.0514C73.412 77.0514 72.892 77.1914 72.5053 77.4714C72.1186 77.7514 71.9253 78.118 71.9253 78.5714C71.9253 78.9314 72.0386 79.2314 72.2653 79.4714C72.5053 79.698 72.7986 79.8847 73.1453 80.0314C73.5053 80.1647 73.9986 80.318 74.6253 80.4914C75.412 80.7047 76.052 80.918 76.5453 81.1314C77.0386 81.3314 77.4586 81.638 77.8053 82.0514C78.1653 82.4647 78.352 83.0047 78.3653 83.6714C78.3653 84.2714 78.1986 84.8114 77.8653 85.2914C77.532 85.7714 77.0586 86.1514 76.4453 86.4314C75.8453 86.698 75.152 86.8314 74.3653 86.8314Z" fill="#999DA2"/>
<path d="M25.192 34.0994C23.464 34.0994 22.088 33.7794 21.064 33.1394C20.0613 32.478 19.336 31.5607 18.888 30.3874C18.44 29.1927 18.216 27.8274 18.216 26.2914V25.3634H23.144C23.144 25.406 23.144 25.5234 23.144 25.7154C23.144 25.886 23.144 26.0567 23.144 26.2274C23.1653 27.0594 23.2293 27.7527 23.336 28.3074C23.464 28.8407 23.6773 29.246 23.976 29.5234C24.2747 29.8007 24.7013 29.9394 25.256 29.9394C25.832 29.9394 26.2587 29.8007 26.536 29.5234C26.8133 29.2247 27.0053 28.798 27.112 28.2434C27.2187 27.6887 27.272 27.006 27.272 26.1954C27.272 24.894 27.08 23.8914 26.696 23.1874C26.312 22.462 25.544 22.0887 24.392 22.0674C24.3707 22.0674 24.264 22.0674 24.072 22.0674C23.88 22.0674 23.6987 22.0674 23.528 22.0674V18.4194C23.656 18.4194 23.784 18.4194 23.912 18.4194C24.0613 18.4194 24.1893 18.4194 24.296 18.4194C25.448 18.4194 26.2267 18.11 26.632 17.4914C27.0587 16.8727 27.272 15.902 27.272 14.5794C27.272 13.5554 27.1227 12.7554 26.824 12.1794C26.5253 11.6034 25.9707 11.3154 25.16 11.3154C24.3493 11.3154 23.816 11.6354 23.56 12.2754C23.304 12.9154 23.1653 13.7367 23.144 14.7394C23.144 14.91 23.144 15.102 23.144 15.3154C23.144 15.5074 23.144 15.6994 23.144 15.8914H18.216V14.4834C18.216 12.9687 18.4933 11.6887 19.048 10.6434C19.6027 9.5767 20.392 8.76603 21.416 8.21137C22.44 7.6567 23.688 7.37937 25.16 7.37937C26.632 7.37937 27.8907 7.64603 28.936 8.17937C29.9813 8.7127 30.7707 9.49137 31.304 10.5154C31.8587 11.5394 32.136 12.8087 32.136 14.3234C32.136 15.838 31.816 17.0967 31.176 18.0994C30.5573 19.102 29.7893 19.742 28.872 20.0194C29.512 20.2327 30.0773 20.5847 30.568 21.0754C31.0587 21.566 31.4427 22.2274 31.72 23.0594C31.9973 23.87 32.136 24.8834 32.136 26.0994C32.136 27.6567 31.912 29.0434 31.464 30.2594C31.016 31.454 30.28 32.3927 29.256 33.0754C28.232 33.758 26.8773 34.0994 25.192 34.0994ZM43.8115 34.0994C42.2542 34.0994 40.9635 33.7794 39.9395 33.1394C38.9155 32.4994 38.1475 31.6247 37.6355 30.5154C37.1235 29.3847 36.8675 28.0834 36.8675 26.6114V14.9954C36.8675 13.4807 37.1128 12.158 37.6035 11.0274C38.0942 9.87537 38.8515 8.97937 39.8755 8.33937C40.8995 7.69937 42.2115 7.37937 43.8115 7.37937C45.3902 7.37937 46.6808 7.69937 47.6835 8.33937C48.7075 8.97937 49.4648 9.87537 49.9555 11.0274C50.4462 12.158 50.6915 13.4807 50.6915 14.9954V26.6114C50.6915 28.0834 50.4355 29.3847 49.9235 30.5154C49.4115 31.6247 48.6435 32.4994 47.6195 33.1394C46.5955 33.7794 45.3262 34.0994 43.8115 34.0994ZM43.8115 29.7474C44.3875 29.7474 44.8035 29.566 45.0595 29.2034C45.3155 28.8407 45.4862 28.414 45.5715 27.9234C45.6568 27.4114 45.6995 26.942 45.6995 26.5154V15.0914C45.6995 14.622 45.6568 14.1314 45.5715 13.6194C45.5075 13.1074 45.3475 12.67 45.0915 12.3074C44.8355 11.9234 44.4088 11.7314 43.8115 11.7314C43.2142 11.7314 42.7768 11.9234 42.4995 12.3074C42.2435 12.67 42.0728 13.1074 41.9875 13.6194C41.9235 14.1314 41.8915 14.622 41.8915 15.0914V26.5154C41.8915 26.942 41.9342 27.4114 42.0195 27.9234C42.1048 28.414 42.2862 28.8407 42.5635 29.2034C42.8408 29.566 43.2568 29.7474 43.8115 29.7474ZM59.8105 26.9954V21.8434H55.2345V18.8994H59.8105V13.8754H63.0745V18.8994H67.7145V21.8434H63.0745V26.9954H59.8105Z" fill="#3CA6FF"/>
</svg>
