<svg width="134" height="89" viewBox="0 0 134 89" fill="none" xmlns="http://www.w3.org/2000/svg">
<path d="M35.12 66.1313V67.6113H31.32V80.0713H29.5V67.6113H25.68V66.1313H35.12ZM38.3003 67.3313C37.9536 67.3313 37.6603 67.2113 37.4203 66.9713C37.1803 66.7313 37.0603 66.438 37.0603 66.0913C37.0603 65.7446 37.1803 65.4513 37.4203 65.2113C37.6603 64.9713 37.9536 64.8513 38.3003 64.8513C38.6336 64.8513 38.9136 64.9713 39.1403 65.2113C39.3803 65.4513 39.5003 65.7446 39.5003 66.0913C39.5003 66.438 39.3803 66.7313 39.1403 66.9713C38.9136 67.2113 38.6336 67.3313 38.3003 67.3313ZM39.1803 69.1113V80.0713H37.3603V69.1113H39.1803ZM55.4622 68.9113C56.3155 68.9113 57.0755 69.0913 57.7422 69.4513C58.4089 69.798 58.9355 70.3246 59.3222 71.0313C59.7089 71.738 59.9022 72.598 59.9022 73.6113V80.0713H58.1022V73.8713C58.1022 72.778 57.8289 71.9446 57.2822 71.3713C56.7489 70.7846 56.0222 70.4913 55.1022 70.4913C54.1555 70.4913 53.4022 70.798 52.8422 71.4113C52.2822 72.0113 52.0022 72.8846 52.0022 74.0313V80.0713H50.2022V73.8713C50.2022 72.778 49.9289 71.9446 49.3822 71.3713C48.8489 70.7846 48.1222 70.4913 47.2022 70.4913C46.2555 70.4913 45.5022 70.798 44.9422 71.4113C44.3822 72.0113 44.1022 72.8846 44.1022 74.0313V80.0713H42.2822V69.1113H44.1022V70.6913C44.4622 70.118 44.9422 69.678 45.5422 69.3713C46.1555 69.0646 46.8289 68.9113 47.5622 68.9113C48.4822 68.9113 49.2955 69.118 50.0022 69.5313C50.7089 69.9446 51.2355 70.5513 51.5822 71.3513C51.8889 70.578 52.3955 69.978 53.1022 69.5513C53.8089 69.1246 54.5955 68.9113 55.4622 68.9113ZM72.8877 74.1713C72.8877 74.518 72.8677 74.8846 72.8277 75.2713H64.0677C64.1343 76.3513 64.501 77.198 65.1677 77.8113C65.8477 78.4113 66.6677 78.7113 67.6277 78.7113C68.4143 78.7113 69.0677 78.5313 69.5877 78.1713C70.121 77.798 70.4943 77.3046 70.7077 76.6913H72.6677C72.3743 77.7446 71.7877 78.6046 70.9077 79.2713C70.0277 79.9246 68.9343 80.2513 67.6277 80.2513C66.5877 80.2513 65.6543 80.018 64.8277 79.5513C64.0143 79.0846 63.3743 78.4246 62.9077 77.5713C62.441 76.7046 62.2077 75.7046 62.2077 74.5713C62.2077 73.438 62.4343 72.4446 62.8877 71.5913C63.341 70.738 63.9743 70.0846 64.7877 69.6313C65.6143 69.1646 66.561 68.9313 67.6277 68.9313C68.6677 68.9313 69.5877 69.158 70.3877 69.6113C71.1877 70.0646 71.801 70.6913 72.2277 71.4913C72.6677 72.278 72.8877 73.1713 72.8877 74.1713ZM71.0077 73.7913C71.0077 73.098 70.8543 72.5046 70.5477 72.0113C70.241 71.5046 69.821 71.1246 69.2877 70.8713C68.7677 70.6046 68.1877 70.4713 67.5477 70.4713C66.6277 70.4713 65.841 70.7646 65.1877 71.3513C64.5477 71.938 64.181 72.7513 64.0877 73.7913H71.0077ZM77.11 65.2713V80.0713H75.29V65.2713H77.11ZM81.1519 67.3313C80.8052 67.3313 80.5119 67.2113 80.2719 66.9713C80.0319 66.7313 79.9119 66.438 79.9119 66.0913C79.9119 65.7446 80.0319 65.4513 80.2719 65.2113C80.5119 64.9713 80.8052 64.8513 81.1519 64.8513C81.4852 64.8513 81.7652 64.9713 81.9919 65.2113C82.2319 65.4513 82.3519 65.7446 82.3519 66.0913C82.3519 66.438 82.2319 66.7313 81.9919 66.9713C81.7652 67.2113 81.4852 67.3313 81.1519 67.3313ZM82.0319 69.1113V80.0713H80.2119V69.1113H82.0319ZM90.4738 68.9113C91.8071 68.9113 92.8871 69.318 93.7138 70.1313C94.5404 70.9313 94.9538 72.0913 94.9538 73.6113V80.0713H93.1538V73.8713C93.1538 72.778 92.8804 71.9446 92.3338 71.3713C91.7871 70.7846 91.0404 70.4913 90.0938 70.4913C89.1338 70.4913 88.3671 70.7913 87.7938 71.3913C87.2338 71.9913 86.9538 72.8646 86.9538 74.0113V80.0713H85.1338V69.1113H86.9538V70.6713C87.3138 70.1113 87.8004 69.678 88.4138 69.3713C89.0404 69.0646 89.7271 68.9113 90.4738 68.9113ZM107.927 74.1713C107.927 74.518 107.907 74.8846 107.867 75.2713H99.1067C99.1734 76.3513 99.5401 77.198 100.207 77.8113C100.887 78.4113 101.707 78.7113 102.667 78.7113C103.453 78.7113 104.107 78.5313 104.627 78.1713C105.16 77.798 105.533 77.3046 105.747 76.6913H107.707C107.413 77.7446 106.827 78.6046 105.947 79.2713C105.067 79.9246 103.973 80.2513 102.667 80.2513C101.627 80.2513 100.693 80.018 99.8667 79.5513C99.0534 79.0846 98.4134 78.4246 97.9467 77.5713C97.4801 76.7046 97.2467 75.7046 97.2467 74.5713C97.2467 73.438 97.4734 72.4446 97.9267 71.5913C98.3801 70.738 99.0134 70.0846 99.8267 69.6313C100.653 69.1646 101.6 68.9313 102.667 68.9313C103.707 68.9313 104.627 69.158 105.427 69.6113C106.227 70.0646 106.84 70.6913 107.267 71.4913C107.707 72.278 107.927 73.1713 107.927 74.1713ZM106.047 73.7913C106.047 73.098 105.893 72.5046 105.587 72.0113C105.28 71.5046 104.86 71.1246 104.327 70.8713C103.807 70.6046 103.227 70.4713 102.587 70.4713C101.667 70.4713 100.88 70.7646 100.227 71.3513C99.5867 71.938 99.2201 72.7513 99.1267 73.7913H106.047Z" fill="#999DA2"/>
<path d="M4.512 33.6514V12.8514C4.32 12.958 4.05333 13.0754 3.712 13.2034C3.392 13.31 3.04 13.438 2.656 13.5874C2.272 13.7154 1.90933 13.8434 1.568 13.9714C1.22667 14.078 0.96 14.174 0.768 14.2594V10.6114C1.024 10.4834 1.36533 10.3127 1.792 10.0994C2.24 9.88603 2.70933 9.65137 3.2 9.39537C3.69067 9.13937 4.14933 8.86203 4.576 8.56337C5.024 8.2647 5.36533 7.98737 5.6 7.73137H9.44V33.6514H4.512ZM23.1568 33.6514V27.6034H15.2848V23.7314L22.0368 7.73137H27.7968V23.8274H30.2928V27.6034H27.7968V33.6514H23.1568ZM19.1888 23.8274H23.1568V12.8194L19.1888 23.8274ZM46.9855 33.6514L43.6255 7.73137H48.1055L49.8975 23.5714L52.1695 7.76337H55.7215L58.0895 23.5394L59.8815 7.73137H64.2975L60.9695 33.6514H56.4895L53.9615 17.2354L51.5615 33.6514H46.9855ZM74.5118 33.9714C73.1464 33.9714 72.0051 33.726 71.0878 33.2354C70.1704 32.7234 69.4771 31.9874 69.0078 31.0274C68.5384 30.046 68.3038 28.8727 68.3038 27.5074V21.2994C68.3038 19.8914 68.5384 18.718 69.0078 17.7794C69.4771 16.8194 70.1811 16.094 71.1198 15.6034C72.0584 15.0914 73.1891 14.8354 74.5118 14.8354C75.9198 14.8354 77.0611 15.0914 77.9358 15.6034C78.8104 16.1154 79.4504 16.862 79.8558 17.8434C80.2824 18.8247 80.4958 20.0194 80.4958 21.4274V24.6594H73.0718V28.2434C73.0718 28.7767 73.1251 29.214 73.2318 29.5554C73.3598 29.8967 73.5304 30.142 73.7438 30.2914C73.9571 30.4194 74.2238 30.4834 74.5438 30.4834C74.8424 30.4834 75.0984 30.4194 75.3118 30.2914C75.5464 30.142 75.7171 29.918 75.8238 29.6194C75.9304 29.3207 75.9838 28.926 75.9838 28.4354V26.6754H80.4638V28.2114C80.4638 30.0887 79.9518 31.518 78.9278 32.4994C77.9038 33.4807 76.4318 33.9714 74.5118 33.9714ZM73.0718 22.3554H75.9838V20.5314C75.9838 19.998 75.9304 19.5714 75.8238 19.2514C75.7171 18.91 75.5464 18.6754 75.3118 18.5474C75.0984 18.398 74.8211 18.3234 74.4798 18.3234C74.1598 18.3234 73.8931 18.398 73.6798 18.5474C73.4878 18.6967 73.3384 18.9634 73.2318 19.3474C73.1251 19.71 73.0718 20.2327 73.0718 20.9154V22.3554ZM91.1505 33.9714C89.7852 33.9714 88.6438 33.726 87.7265 33.2354C86.8092 32.7234 86.1158 31.9874 85.6465 31.0274C85.1772 30.046 84.9425 28.8727 84.9425 27.5074V21.2994C84.9425 19.8914 85.1772 18.718 85.6465 17.7794C86.1158 16.8194 86.8198 16.094 87.7585 15.6034C88.6972 15.0914 89.8278 14.8354 91.1505 14.8354C92.5585 14.8354 93.6998 15.0914 94.5745 15.6034C95.4492 16.1154 96.0892 16.862 96.4945 17.8434C96.9212 18.8247 97.1345 20.0194 97.1345 21.4274V24.6594H89.7105V28.2434C89.7105 28.7767 89.7638 29.214 89.8705 29.5554C89.9985 29.8967 90.1692 30.142 90.3825 30.2914C90.5958 30.4194 90.8625 30.4834 91.1825 30.4834C91.4812 30.4834 91.7372 30.4194 91.9505 30.2914C92.1852 30.142 92.3558 29.918 92.4625 29.6194C92.5692 29.3207 92.6225 28.926 92.6225 28.4354V26.6754H97.1025V28.2114C97.1025 30.0887 96.5905 31.518 95.5665 32.4994C94.5425 33.4807 93.0705 33.9714 91.1505 33.9714ZM89.7105 22.3554H92.6225V20.5314C92.6225 19.998 92.5692 19.5714 92.4625 19.2514C92.3558 18.91 92.1852 18.6754 91.9505 18.5474C91.7372 18.398 91.4598 18.3234 91.1185 18.3234C90.7985 18.3234 90.5318 18.398 90.3185 18.5474C90.1265 18.6967 89.9772 18.9634 89.8705 19.3474C89.7638 19.71 89.7105 20.2327 89.7105 20.9154V22.3554ZM101.965 33.6514V7.73137H106.765V22.3234L111.405 15.1554H116.781L111.981 22.6754L116.717 33.6514H111.501L108.205 24.7234L106.765 26.6114V33.6514H101.965ZM125.793 33.9714C124.193 33.9714 122.87 33.5874 121.825 32.8194C120.801 32.03 120.001 30.8247 119.425 29.2034L122.817 27.7954C123.137 28.6914 123.521 29.3954 123.969 29.9074C124.417 30.398 124.939 30.6434 125.537 30.6434C125.985 30.6434 126.315 30.5474 126.529 30.3554C126.763 30.142 126.881 29.854 126.881 29.4914C126.881 28.9794 126.71 28.5207 126.369 28.1154C126.027 27.71 125.419 27.1447 124.545 26.4194L122.817 24.9474C121.921 24.1794 121.195 23.422 120.641 22.6754C120.107 21.9074 119.841 20.958 119.841 19.8274C119.841 18.8247 120.086 17.95 120.577 17.2034C121.089 16.4567 121.761 15.8807 122.593 15.4754C123.446 15.0487 124.363 14.8354 125.345 14.8354C126.859 14.8354 128.097 15.2727 129.057 16.1474C130.038 17.0007 130.699 18.1634 131.041 19.6354L127.905 21.0434C127.777 20.574 127.606 20.1367 127.393 19.7314C127.179 19.3047 126.902 18.9527 126.561 18.6754C126.241 18.398 125.878 18.2594 125.473 18.2594C125.089 18.2594 124.779 18.3767 124.545 18.6114C124.31 18.846 124.193 19.1447 124.193 19.5074C124.193 19.8914 124.385 20.2967 124.769 20.7234C125.174 21.15 125.729 21.662 126.433 22.2594L128.161 23.7954C128.673 24.2434 129.174 24.7234 129.665 25.2354C130.155 25.726 130.561 26.2807 130.881 26.8994C131.201 27.4967 131.361 28.19 131.361 28.9794C131.361 30.046 131.105 30.9527 130.593 31.6994C130.081 32.446 129.398 33.0114 128.545 33.3954C127.713 33.7794 126.795 33.9714 125.793 33.9714Z" fill="#3CA6FF"/>
</svg>
